<?xml version="1.0" encoding="iso-8859-1"?>
<!-- Generator: Adobe Illustrator 17.1.0, SVG Export Plug-In . SVG Version: 6.00 Build 0)  -->
<!DOCTYPE svg PUBLIC "-//W3C//DTD SVG 1.1//EN" "http://www.w3.org/Graphics/SVG/1.1/DTD/svg11.dtd">
<svg version="1.1" id="Capa_1" xmlns="http://www.w3.org/2000/svg" xmlns:xlink="http://www.w3.org/1999/xlink" x="0px" y="0px"
	 viewBox="0 0 422.883 422.883" style="enable-background:new 0 0 422.883 422.883;" xml:space="preserve">
<g>
	<path d="M412.883,298.04h-60.511c13.527-6.191,25.237-15.511,34.732-27.794c17.135-22.166,26.192-52.432,26.192-87.524
		s-9.057-65.358-26.192-87.524c-12.355-15.983-28.457-26.956-47.44-32.53V46.045h7.012c5.514,0,10-4.486,10-10V19.919
		c0-5.514-4.486-10-10-10h-84.41c-5.514,0-10,4.486-10,10v16.126c0,5.514,4.486,10,10,10h7.13v12.358h-80.879v174.992h-20.066
		v-28.371H96.789v28.371H76.722V64.586l-5.641,2.536c-19.598,8.813-35.565,24.492-46.177,45.343
		c-10.021,19.688-15.317,43.983-15.317,70.257c0,35.093,9.057,65.358,26.192,87.524c9.495,12.283,21.205,21.603,34.732,27.794H10
		c-5.514,0-10,4.486-10,10v22.656c0,5.514,4.486,10,10,10h7.217c-4.173,7.117-6.577,15.391-6.577,24.22
		c0,26.494,21.556,48.048,48.052,48.048c26.498,0,48.056-21.554,48.056-48.048c0-8.829-2.405-17.103-6.578-24.22h222.543
		c-4.173,7.117-6.577,15.391-6.577,24.22c0,26.494,21.556,48.048,48.052,48.048c26.498,0,48.056-21.554,48.056-48.048
		c0-8.829-2.405-17.103-6.578-24.22h7.217c5.514,0,10-4.486,10-10V308.04C422.883,302.526,418.397,298.04,412.883,298.04z
		 M304.471,113.186c6.392-9.878,40.675,41.454,40.675,63.918s-18.211,40.676-40.675,40.676c-22.464,0-40.675-18.211-40.675-40.676
		S292.832,131.173,304.471,113.186z M58.692,382.218c-9.54,0-17.3-7.762-17.3-17.302s7.761-17.302,17.3-17.302
		c9.543,0,17.308,7.762,17.308,17.302S68.235,382.218,58.692,382.218z M381.496,364.916c0,9.54-7.764,17.302-17.308,17.302
		c-9.54,0-17.3-7.762-17.3-17.302s7.761-17.302,17.3-17.302C373.731,347.614,381.496,355.376,381.496,364.916z M412.883,335.696
		L412.883,335.696L412.883,335.696L412.883,335.696z"/>
	<path d="M168.451,58.403h-54.313c-4.643,0-9.292,0.27-13.815,0.8l-3.534,0.414v25.894h71.662V58.403z"/>
	<rect x="96.789" y="155.301" width="71.662" height="29.657"/>
	<rect x="96.789" y="105.577" width="71.662" height="29.657"/>
</g>
<g>
</g>
<g>
</g>
<g>
</g>
<g>
</g>
<g>
</g>
<g>
</g>
<g>
</g>
<g>
</g>
<g>
</g>
<g>
</g>
<g>
</g>
<g>
</g>
<g>
</g>
<g>
</g>
<g>
</g>
</svg>
